<svg width="42.000000" height="47.000000" viewBox="0 0 42 47" fill="none" xmlns="http://www.w3.org/2000/svg" xmlns:xlink="http://www.w3.org/1999/xlink">
	<desc>
			Created with Pixso.
	</desc>
	<defs>
		<linearGradient x1="23.344444" y1="39.381950" x2="23.627472" y2="25.602621" id="paint_linear_2_60_0" gradientUnits="userSpaceOnUse">
			<stop stop-color="#F35F2F"/>
			<stop offset="1.000000" stop-color="#F35F2F" stop-opacity="0.749020"/>
		</linearGradient>
		<linearGradient x1="15.316029" y1="32.733067" x2="15.465145" y2="4.255792" id="paint_linear_2_61_0" gradientUnits="userSpaceOnUse">
			<stop stop-color="#F35F2F"/>
			<stop offset="1.000000" stop-color="#F35F2F" stop-opacity="0.749020"/>
		</linearGradient>
		<linearGradient x1="29.212452" y1="32.733051" x2="29.353230" y2="4.255767" id="paint_linear_2_62_0" gradientUnits="userSpaceOnUse">
			<stop stop-color="#F35F2F"/>
			<stop offset="1.000000" stop-color="#F35F2F" stop-opacity="0.749020"/>
		</linearGradient>
		<linearGradient x1="25.329086" y1="54.129971" x2="25.832642" y2="-11.092153" id="paint_linear_2_63_0" gradientUnits="userSpaceOnUse">
			<stop stop-color="#F35F2F"/>
			<stop offset="1.000000" stop-color="#F35F2F" stop-opacity="0.749020"/>
		</linearGradient>
		<linearGradient x1="22.069782" y1="30.508287" x2="22.211315" y2="14.891734" id="paint_linear_2_64_0" gradientUnits="userSpaceOnUse">
			<stop stop-color="#F35F2F"/>
			<stop offset="1.000000" stop-color="#F35F2F" stop-opacity="0.749020"/>
		</linearGradient>
	</defs>
	<g opacity="0.950000">
		<path id="Vector" d="M20.79 31.41C19.53 31.42 18.28 31.11 17.15 30.52C16.02 29.92 15.04 29.06 14.3 28L9.09 31.1C9.29 31.34 9.53 31.54 9.79 31.7L19.04 37.25C19.59 37.54 20.18 37.69 20.79 37.69C21.4 37.69 22 37.54 22.54 37.25L31.8 31.7C32.06 31.54 32.29 31.34 32.49 31.1L27.3 27.94C26.56 29.02 25.58 29.89 24.45 30.49C23.32 31.1 22.06 31.41 20.79 31.41Z" fill="url(#paint_linear_2_60_0)" fill-opacity="1.000000" fill-rule="nonzero"/>
		<path id="Vector" d="M12.65 23.03C12.65 21.06 13.42 19.16 14.8 17.69C16.19 16.22 18.09 15.29 20.14 15.08L20.14 9.09C19.83 9.16 19.53 9.26 19.25 9.41L9.6 14.72C9.08 15.05 8.64 15.5 8.33 16.02C8.01 16.54 7.83 17.13 7.79 17.73L7.79 28.34C7.8 28.65 7.85 28.95 7.95 29.24L13.37 26.26C12.9 25.24 12.65 24.14 12.65 23.03Z" fill="url(#paint_linear_2_61_0)" fill-opacity="1.000000" fill-rule="nonzero"/>
		<path id="Vector" d="M32.08 14.71L22.93 9.41C22.67 9.26 22.39 9.16 22.09 9.09L22.09 15.06C23.33 15.2 24.53 15.63 25.57 16.32C26.62 17.01 27.49 17.94 28.11 19.03C28.73 20.12 29.09 21.34 29.16 22.6C29.23 23.85 29.01 25.11 28.51 26.26L33.64 29.24C33.74 28.95 33.79 28.65 33.79 28.34L33.79 17.74C33.76 17.13 33.58 16.55 33.29 16.02C32.99 15.5 32.58 15.05 32.08 14.71Z" fill="url(#paint_linear_2_62_0)" fill-opacity="1.000000" fill-rule="nonzero"/>
		<path id="Vector" d="M38.74 9.4L23.64 0.67C22.76 0.23 21.78 0 20.79 0C19.8 0 18.83 0.23 17.94 0.67L2.85 9.4C2.02 9.94 1.33 10.67 0.83 11.53C0.34 12.38 0.05 13.34 0 14.33L0 31.79C0.05 32.78 0.34 33.74 0.83 34.6C1.33 35.46 2.02 36.19 2.85 36.73L17.94 45.46C18.83 45.91 19.8 46.14 20.79 46.14C21.78 46.14 22.76 45.91 23.64 45.46L38.74 36.73C39.57 36.19 40.26 35.46 40.75 34.6C41.25 33.74 41.53 32.78 41.59 31.79L41.59 14.33C41.53 13.34 41.25 12.38 40.75 11.53C40.26 10.67 39.57 9.94 38.74 9.4ZM36.8 29.78C36.75 30.54 36.53 31.28 36.15 31.94C35.77 32.6 35.24 33.16 34.6 33.58L22.98 40.3C22.3 40.64 21.55 40.82 20.79 40.82C20.02 40.82 19.27 40.64 18.6 40.3L6.98 33.58C6.34 33.16 5.81 32.6 5.43 31.94C5.05 31.28 4.83 30.54 4.78 29.78L4.78 16.35C4.83 15.59 5.05 14.85 5.43 14.19C5.81 13.53 6.34 12.97 6.98 12.56L18.58 5.83C19.26 5.49 20.01 5.31 20.77 5.31C21.53 5.31 22.28 5.49 22.96 5.83L34.59 12.56C35.23 12.97 35.76 13.53 36.15 14.19C36.53 14.85 36.75 15.59 36.8 16.35L36.8 29.78Z" fill="url(#paint_linear_2_63_0)" fill-opacity="1.000000" fill-rule="nonzero"/>
		<path id="Vector" d="M14.94 23.07C14.94 24.16 15.28 25.23 15.93 26.14C16.57 27.04 17.48 27.75 18.55 28.17C19.62 28.59 20.8 28.7 21.93 28.49C23.07 28.27 24.11 27.75 24.93 26.97C25.74 26.2 26.3 25.22 26.53 24.14C26.75 23.07 26.64 21.96 26.19 20.95C25.75 19.94 25 19.08 24.04 18.47C23.08 17.87 21.95 17.54 20.79 17.54C19.24 17.54 17.75 18.12 16.66 19.16C15.56 20.2 14.94 21.6 14.94 23.07Z" fill="url(#paint_linear_2_64_0)" fill-opacity="1.000000" fill-rule="nonzero"/>
	</g>
</svg>
