<svg width="196.000000" height="47.000000" viewBox="0 0 196 47" fill="none" xmlns="http://www.w3.org/2000/svg" xmlns:xlink="http://www.w3.org/1999/xlink">
	<desc>
			Created with Pixso.
	</desc>
	<defs>
		<linearGradient x1="23.344444" y1="39.381950" x2="23.627472" y2="25.602621" id="paint_linear_2_60_0" gradientUnits="userSpaceOnUse">
			<stop stop-color="#F35F2F"/>
			<stop offset="1.000000" stop-color="#F35F2F" stop-opacity="0.749020"/>
		</linearGradient>
		<linearGradient x1="15.316029" y1="32.733067" x2="15.465145" y2="4.255792" id="paint_linear_2_61_0" gradientUnits="userSpaceOnUse">
			<stop stop-color="#F35F2F"/>
			<stop offset="1.000000" stop-color="#F35F2F" stop-opacity="0.749020"/>
		</linearGradient>
		<linearGradient x1="29.212452" y1="32.733051" x2="29.353230" y2="4.255767" id="paint_linear_2_62_0" gradientUnits="userSpaceOnUse">
			<stop stop-color="#F35F2F"/>
			<stop offset="1.000000" stop-color="#F35F2F" stop-opacity="0.749020"/>
		</linearGradient>
		<linearGradient x1="25.329086" y1="54.129971" x2="25.832642" y2="-11.092153" id="paint_linear_2_63_0" gradientUnits="userSpaceOnUse">
			<stop stop-color="#F35F2F"/>
			<stop offset="1.000000" stop-color="#F35F2F" stop-opacity="0.749020"/>
		</linearGradient>
		<linearGradient x1="22.069782" y1="30.508287" x2="22.211315" y2="14.891734" id="paint_linear_2_64_0" gradientUnits="userSpaceOnUse">
			<stop stop-color="#F35F2F"/>
			<stop offset="1.000000" stop-color="#F35F2F" stop-opacity="0.749020"/>
		</linearGradient>
	</defs>
	<path id="Designzcy" d="M87.75 31.54Q89.37 32.26 91.79 32.26Q94 32.26 95.66 31.61Q97.33 30.95 98.25 29.75Q98.46 29.47 98.62 29.17Q99.17 28.15 99.17 26.82Q99.17 25.29 98.52 24.29Q97.87 23.29 96.47 22.64Q95.07 21.98 92.86 21.49Q91.3 21.08 90.34 20.72Q89.4 20.35 88.97 19.86Q88.85 19.73 88.77 19.59Q88.54 19.19 88.54 18.66Q88.54 18.02 88.84 17.57Q89.05 17.26 89.4 17.05Q90.26 16.53 91.66 16.53Q93.01 16.53 93.87 17.1Q94.61 17.59 94.82 18.25Q94.86 18.36 94.88 18.47Q95.02 18.76 95.22 18.87Q95.43 18.97 95.64 18.97L98.06 18.97Q98.25 18.97 98.38 18.88Q98.42 18.85 98.46 18.8Q98.55 18.69 98.59 18.57Q98.6 18.5 98.6 18.42Q98.58 17.62 98.12 16.77Q97.67 15.93 96.81 15.19Q95.95 14.44 94.65 13.99Q93.35 13.54 91.66 13.54Q89.56 13.54 88.03 14.22Q86.51 14.89 85.7 16.05L85.69 16.06Q85.41 16.46 85.23 16.9Q84.87 17.74 84.87 18.73Q84.87 20.3 85.53 21.31Q86.2 22.32 87.51 22.99Q88.83 23.65 90.78 24.12Q92.47 24.53 93.49 24.91Q94.52 25.29 95.02 25.74Q95.18 25.9 95.29 26.08Q95.51 26.45 95.51 26.95Q95.51 27.42 95.33 27.81Q95.1 28.29 94.59 28.64Q93.66 29.27 91.79 29.27Q90.62 29.27 89.85 28.95Q89.09 28.64 88.64 28.16Q88.21 27.68 88.05 27.18Q87.92 26.97 87.75 26.83Q87.58 26.69 87.24 26.69L84.92 26.69Q84.8 26.69 84.7 26.73Q84.61 26.77 84.54 26.85Q84.46 26.92 84.42 27.01Q84.38 27.11 84.38 27.23Q84.39 27.44 84.42 27.64Q84.57 28.7 85.28 29.67Q86.12 30.83 87.75 31.54ZM112.94 31.42Q114.62 32.26 117.01 32.26Q119.4 32.26 121.15 31.4Q122.34 30.82 123.15 29.91Q123.55 29.47 123.86 28.95Q124.81 27.37 124.81 25.18L124.81 22.45Q124.81 22.25 124.72 22.09Q124.68 22.03 124.64 21.98Q124.59 21.93 124.53 21.89Q124.39 21.8 124.19 21.8L117.97 21.8Q117.84 21.8 117.73 21.85Q117.62 21.89 117.53 21.98Q117.47 22.04 117.44 22.11Q117.35 22.26 117.35 22.45L117.35 23.83Q117.35 24.03 117.44 24.18Q117.47 24.25 117.53 24.3Q117.61 24.39 117.72 24.43Q117.83 24.48 117.97 24.48L121.15 24.48L121.15 25.29Q121.15 26.66 120.61 27.55Q120.33 28.03 119.92 28.37Q119.58 28.66 119.15 28.85Q118.23 29.27 117.06 29.27Q115.51 29.27 114.49 28.53Q114.35 28.43 114.21 28.31Q113.14 27.34 113.06 25.13Q112.98 22.82 113.06 20.56Q113.14 18.4 114.19 17.47Q114.28 17.38 114.39 17.3Q115.4 16.53 117.01 16.53Q118.21 16.53 118.96 16.89Q119.72 17.26 120.16 17.79Q120.6 18.32 120.81 18.87Q120.91 19.07 121.04 19.18Q121.17 19.28 121.43 19.28L124.11 19.28Q124.32 19.28 124.46 19.18Q124.49 19.16 124.52 19.13Q124.59 19.06 124.63 18.98Q124.67 18.87 124.66 18.73Q124.63 17.95 124.15 17.05Q123.67 16.13 122.71 15.35Q121.77 14.55 120.34 14.04Q118.91 13.54 117.01 13.54Q114.67 13.54 112.96 14.37Q111.82 14.93 111.03 15.8Q110.65 16.23 110.34 16.74Q109.42 18.27 109.34 20.42Q109.31 21.57 109.31 22.86Q109.31 24.14 109.34 25.26Q109.42 27.44 110.34 29.02Q110.73 29.68 111.25 30.22Q111.97 30.94 112.94 31.42ZM165.54 31.41Q167.21 32.26 169.63 32.26Q171.4 32.26 172.81 31.79Q174.21 31.32 175.2 30.5Q176.01 29.83 176.52 28.97Q176.64 28.78 176.74 28.59Q176.9 28.26 177.01 27.92Q177.29 27.12 177.31 26.23Q177.32 26.1 177.28 26Q177.24 25.91 177.16 25.84Q177.09 25.77 177 25.73Q176.89 25.68 176.76 25.68L174.29 25.68Q174.01 25.68 173.82 25.81Q173.64 25.94 173.56 26.3Q173.17 27.99 172.14 28.63Q171.12 29.27 169.61 29.27Q168.13 29.27 167.16 28.57Q166.98 28.44 166.83 28.29Q165.79 27.32 165.71 25.08Q165.63 22.84 165.71 20.71Q165.79 18.47 166.83 17.5Q166.99 17.35 167.17 17.22Q168.14 16.53 169.61 16.53Q171.12 16.53 172.13 17.15Q173.14 17.77 173.56 19.49Q173.64 19.83 173.82 19.97Q173.83 19.98 173.83 19.98Q174.01 20.11 174.29 20.11L176.76 20.11Q176.9 20.11 177.01 20.06Q177.09 20.02 177.16 19.96Q177.24 19.88 177.28 19.79Q177.32 19.69 177.31 19.57Q177.29 18.64 177 17.81Q176.88 17.5 176.74 17.2Q176.62 16.98 176.49 16.76Q175.99 15.94 175.2 15.29Q174.21 14.47 172.81 14.01Q171.4 13.54 169.63 13.54Q167.25 13.54 165.56 14.38Q164.58 14.88 163.87 15.63Q163.36 16.16 162.99 16.81Q162.1 18.4 161.99 20.58Q161.96 21.7 161.96 22.92Q161.96 24.14 161.99 25.21Q162.1 27.42 162.98 28.99Q163.32 29.6 163.78 30.1Q164.51 30.89 165.54 31.41ZM51.39 31.95Q51.51 32 51.65 32L58.12 32Q60.72 32 62.39 31.23Q63.4 30.77 64.1 30.02Q64.58 29.52 64.91 28.89Q65.74 27.32 65.79 24.9Q65.84 23.78 65.84 22.9Q65.84 22.01 65.79 20.87Q65.77 18.58 64.89 17Q64.54 16.37 64.07 15.86Q63.35 15.09 62.32 14.6Q60.62 13.8 57.99 13.8L51.65 13.8Q51.52 13.8 51.41 13.84Q51.3 13.89 51.2 13.98Q51.14 14.04 51.1 14.11Q51.02 14.25 51.02 14.44L51.02 31.37Q51.02 31.5 51.07 31.61Q51.11 31.73 51.2 31.82Q51.29 31.9 51.39 31.95ZM69.67 31.95Q69.79 32 69.93 32L81.57 32Q81.78 32 81.93 31.9Q81.99 31.87 82.04 31.82Q82.13 31.73 82.18 31.61Q82.22 31.5 82.22 31.37L82.22 29.65Q82.22 29.46 82.14 29.32Q82.1 29.25 82.04 29.19Q81.98 29.13 81.91 29.09Q81.77 29.01 81.57 29.01L72.81 29.01L72.81 24.24L80.79 24.24Q81.02 24.24 81.18 24.14Q81.22 24.11 81.26 24.08Q81.31 24.03 81.35 23.96Q81.44 23.82 81.44 23.62L81.44 22.01Q81.44 21.81 81.35 21.66Q81.31 21.61 81.26 21.56Q81.21 21.52 81.16 21.48Q81.01 21.39 80.79 21.39L72.81 21.39L72.81 16.79L81.36 16.79Q81.57 16.79 81.72 16.7Q81.78 16.66 81.83 16.61Q81.92 16.52 81.97 16.4Q82.01 16.29 82.01 16.16L82.01 14.44Q82.01 14.25 81.93 14.11Q81.89 14.04 81.83 13.98Q81.77 13.92 81.7 13.88Q81.56 13.8 81.36 13.8L69.93 13.8Q69.8 13.8 69.69 13.84Q69.57 13.89 69.48 13.98Q69.42 14.04 69.38 14.11Q69.3 14.25 69.3 14.44L69.3 31.37Q69.3 31.5 69.34 31.61Q69.39 31.73 69.48 31.82Q69.57 31.9 69.67 31.95ZM102.54 31.95Q102.65 32 102.79 32L105.23 32Q105.45 32 105.59 31.9Q105.64 31.86 105.69 31.82Q105.76 31.74 105.8 31.64Q105.86 31.52 105.86 31.37L105.86 14.42Q105.86 14.26 105.8 14.14Q105.76 14.05 105.69 13.98Q105.64 13.93 105.58 13.89Q105.44 13.8 105.23 13.8L102.79 13.8Q102.66 13.8 102.55 13.84Q102.44 13.89 102.35 13.98Q102.26 14.06 102.21 14.17Q102.16 14.28 102.16 14.42L102.16 31.37Q102.16 31.5 102.21 31.61Q102.25 31.73 102.35 31.82Q102.43 31.9 102.54 31.95ZM128.51 31.95Q128.63 32 128.76 32L130.95 32Q131.15 32 131.3 31.9Q131.36 31.87 131.41 31.82Q131.5 31.73 131.55 31.61Q131.6 31.5 131.6 31.37L131.6 20.19L139.06 31.58Q139.14 31.63 139.29 31.82Q139.45 32 139.82 32L141.84 32Q141.99 32 142.11 31.94Q142.2 31.9 142.28 31.82Q142.34 31.75 142.38 31.68Q142.46 31.54 142.46 31.35L142.46 14.44Q142.46 14.25 142.38 14.11Q142.34 14.04 142.28 13.98Q142.22 13.92 142.15 13.88Q142.01 13.8 141.82 13.8L139.63 13.8Q139.43 13.8 139.29 13.89Q139.23 13.92 139.17 13.98Q139.14 14.02 139.11 14.06Q139.01 14.22 139.01 14.44L139.01 25.86L131.52 14.21Q131.47 14.13 131.3 13.97Q131.13 13.8 130.76 13.8L128.76 13.8Q128.63 13.8 128.52 13.84Q128.41 13.89 128.32 13.98Q128.26 14.04 128.22 14.11Q128.14 14.25 128.14 14.44L128.14 31.37Q128.14 31.5 128.18 31.61Q128.23 31.73 128.32 31.82Q128.41 31.9 128.51 31.95ZM145.88 31.95Q145.99 32 146.13 32L159.11 32Q159.31 32 159.46 31.9Q159.52 31.87 159.57 31.82Q159.66 31.73 159.71 31.61Q159.75 31.5 159.75 31.37L159.75 29.55Q159.75 29.36 159.67 29.21Q159.63 29.15 159.57 29.09Q159.51 29.03 159.44 28.99Q159.3 28.9 159.11 28.9L150.26 28.9L159.13 17.15Q159.26 16.97 159.37 16.76Q159.47 16.55 159.47 16.24L159.47 14.44Q159.47 14.25 159.38 14.11Q159.34 14.04 159.28 13.98Q159.23 13.92 159.16 13.88Q159.01 13.8 158.82 13.8L146.39 13.8Q146.19 13.8 146.05 13.89Q145.99 13.92 145.93 13.98Q145.9 14.02 145.87 14.06Q145.77 14.22 145.77 14.44L145.77 16.24Q145.77 16.4 145.83 16.53Q145.87 16.61 145.93 16.68Q145.98 16.73 146.03 16.77Q146.18 16.86 146.39 16.86L154.95 16.86L145.9 28.56Q145.82 28.67 145.66 28.9Q145.51 29.13 145.51 29.53L145.51 31.35Q145.51 31.55 145.59 31.69Q145.63 31.76 145.69 31.82Q145.77 31.9 145.88 31.95ZM185.06 31.95Q185.17 32 185.31 32L187.68 32Q187.88 32 188.03 31.91Q188.09 31.87 188.15 31.82Q188.24 31.73 188.29 31.61Q188.33 31.5 188.33 31.37L188.33 25.5L194.46 14.63Q194.48 14.61 194.49 14.59Q194.52 14.55 194.53 14.5Q194.55 14.42 194.55 14.34Q194.55 14.2 194.49 14.09Q194.45 14.02 194.39 13.96Q194.31 13.88 194.22 13.84Q194.12 13.8 194 13.8L191.71 13.8Q191.42 13.8 191.23 13.93Q191.22 13.94 191.2 13.96Q191 14.11 190.9 14.29L186.51 21.86L182.09 14.29Q182.01 14.11 181.81 13.96Q181.8 13.95 181.79 13.94Q181.61 13.8 181.31 13.8L178.99 13.8Q178.91 13.8 178.84 13.82Q178.72 13.86 178.63 13.96Q178.57 14.01 178.54 14.07Q178.47 14.19 178.47 14.34Q178.47 14.42 178.5 14.5Q178.52 14.58 178.55 14.63L184.69 25.5L184.69 31.37Q184.69 31.51 184.74 31.63Q184.78 31.73 184.87 31.82Q184.95 31.9 185.06 31.95ZM57.99 29.01L54.64 29.01L54.64 16.79L57.86 16.79Q60.07 16.79 61.08 17.8Q62.1 18.81 62.15 20.94Q62.18 21.7 62.19 22.28Q62.2 22.87 62.19 23.46Q62.18 24.04 62.15 24.82Q62.12 26.33 61.69 27.25Q61.47 27.74 61.1 28.09Q60.78 28.4 60.36 28.59Q59.45 29.01 57.99 29.01Z" fill="#3D3D3F" fill-opacity="1.000000" fill-rule="evenodd"/>
	<g opacity="0.950000">
		<path id="Vector" d="M20.79 31.41C19.53 31.42 18.28 31.11 17.15 30.52C16.02 29.92 15.04 29.06 14.3 28L9.09 31.1C9.29 31.34 9.53 31.54 9.79 31.7L19.04 37.25C19.59 37.54 20.18 37.69 20.79 37.69C21.4 37.69 22 37.54 22.54 37.25L31.8 31.7C32.06 31.54 32.29 31.34 32.49 31.1L27.3 27.94C26.56 29.02 25.58 29.89 24.45 30.49C23.32 31.1 22.06 31.41 20.79 31.41Z" fill="url(#paint_linear_2_60_0)" fill-opacity="1.000000" fill-rule="nonzero"/>
		<path id="Vector" d="M12.65 23.03C12.65 21.06 13.42 19.16 14.8 17.69C16.19 16.22 18.09 15.29 20.14 15.08L20.14 9.09C19.83 9.16 19.53 9.26 19.25 9.41L9.6 14.72C9.08 15.05 8.64 15.5 8.33 16.02C8.01 16.54 7.83 17.13 7.79 17.73L7.79 28.34C7.8 28.65 7.85 28.95 7.95 29.24L13.37 26.26C12.9 25.24 12.65 24.14 12.65 23.03Z" fill="url(#paint_linear_2_61_0)" fill-opacity="1.000000" fill-rule="nonzero"/>
		<path id="Vector" d="M32.08 14.71L22.93 9.41C22.67 9.26 22.39 9.16 22.09 9.09L22.09 15.06C23.33 15.2 24.53 15.63 25.57 16.32C26.62 17.01 27.49 17.94 28.11 19.03C28.73 20.12 29.09 21.34 29.16 22.6C29.23 23.85 29.01 25.11 28.51 26.26L33.64 29.24C33.74 28.95 33.79 28.65 33.79 28.34L33.79 17.74C33.76 17.13 33.58 16.55 33.29 16.02C32.99 15.5 32.58 15.05 32.08 14.71Z" fill="url(#paint_linear_2_62_0)" fill-opacity="1.000000" fill-rule="nonzero"/>
		<path id="Vector" d="M38.74 9.4L23.64 0.67C22.76 0.23 21.78 0 20.79 0C19.8 0 18.83 0.23 17.94 0.67L2.85 9.4C2.02 9.94 1.33 10.67 0.83 11.53C0.34 12.38 0.05 13.34 0 14.33L0 31.79C0.05 32.78 0.34 33.74 0.83 34.6C1.33 35.46 2.02 36.19 2.85 36.73L17.94 45.46C18.83 45.91 19.8 46.14 20.79 46.14C21.78 46.14 22.76 45.91 23.64 45.46L38.74 36.73C39.57 36.19 40.26 35.46 40.75 34.6C41.25 33.74 41.53 32.78 41.59 31.79L41.59 14.33C41.53 13.34 41.25 12.38 40.75 11.53C40.26 10.67 39.57 9.94 38.74 9.4ZM36.8 29.78C36.75 30.54 36.53 31.28 36.15 31.94C35.77 32.6 35.24 33.16 34.6 33.58L22.98 40.3C22.3 40.64 21.55 40.82 20.79 40.82C20.02 40.82 19.27 40.64 18.6 40.3L6.98 33.58C6.34 33.16 5.81 32.6 5.43 31.94C5.05 31.28 4.83 30.54 4.78 29.78L4.78 16.35C4.83 15.59 5.05 14.85 5.43 14.19C5.81 13.53 6.34 12.97 6.98 12.56L18.58 5.83C19.26 5.49 20.01 5.31 20.77 5.31C21.53 5.31 22.28 5.49 22.96 5.83L34.59 12.56C35.23 12.97 35.76 13.53 36.15 14.19C36.53 14.85 36.75 15.59 36.8 16.35L36.8 29.78Z" fill="url(#paint_linear_2_63_0)" fill-opacity="1.000000" fill-rule="nonzero"/>
		<path id="Vector" d="M14.94 23.07C14.94 24.16 15.28 25.23 15.93 26.14C16.57 27.04 17.48 27.75 18.55 28.17C19.62 28.59 20.8 28.7 21.93 28.49C23.07 28.27 24.11 27.75 24.93 26.97C25.74 26.2 26.3 25.22 26.53 24.14C26.75 23.07 26.64 21.96 26.19 20.95C25.75 19.94 25 19.08 24.04 18.47C23.08 17.87 21.95 17.54 20.79 17.54C19.24 17.54 17.75 18.12 16.66 19.16C15.56 20.2 14.94 21.6 14.94 23.07Z" fill="url(#paint_linear_2_64_0)" fill-opacity="1.000000" fill-rule="nonzero"/>
	</g>
</svg>
